<svg width="200" height="200" viewBox="0 0 200 200" fill="none" xmlns="http://www.w3.org/2000/svg">
<circle cx="100" cy="100" r="100" fill="black"/>
<g clip-path="url(#clip0_11_23)">
<path d="M66.4801 106.623L149.657 13.1752C134.563 4.55285 117.485 0.00918467 100.102 -0.00859174C82.7186 -0.0263682 65.6305 4.48236 50.519 13.0739V127.389C51.4226 126.194 59.855 113.852 66.4801 106.623Z" fill="#F4DF21"/>
<path d="M-6.20935e-06 100.002C-0.0297603 125.103 9.41546 149.291 26.4474 167.73V32.2703C9.4163 50.7112 -0.0286953 74.8999 -6.20935e-06 100.002V100.002Z" fill="#62C148"/>
<path d="M171.908 169.48C181.192 159.872 188.457 148.501 193.273 136.038C198.088 123.576 200.358 110.275 199.947 96.9206C199.536 83.5664 196.453 70.4299 190.88 58.2871C185.307 46.1444 177.358 35.2415 167.5 26.2226L110.132 92.4735L171.908 169.48Z" fill="#54BDE1"/>
<path d="M50.519 158.711V186.922C66.5109 196.018 84.7011 200.529 103.09 199.959C121.479 199.389 139.355 193.76 154.753 183.691L95.083 109.034L50.519 158.711Z" fill="#D02C21"/>
</g>
<defs>
<clipPath id="clip0_11_23">
<rect width="200" height="200" fill="white"/>
</clipPath>
</defs>
</svg>
