<svg width="143" height="134" viewBox="0 0 143 134" fill="none" xmlns="http://www.w3.org/2000/svg">
<g clip-path="url(#clip0_1_28)">
<path d="M34.3047 73.8383L38.0547 45.5961L5.47656 22.9789L35.2422 33.057L42.2734 22.2758L67.9375 6.33832L124.539 37.5101L127.469 85.0883L102.273 120.127L82.3516 123.174L92.6641 104.307V86.143L85.1641 71.9633L77.5469 66.9242L65.8281 78.9945V91.7679L56.6875 100.323L45.0859 101.729L39.9297 104.659L31.4922 101.963L27.9766 89.307L34.3047 80.4008V73.8383Z" fill="white"/>
<path d="M86.3358 22.7445C80.1248 21.4554 73.328 21.807 73.328 21.807C73.328 21.807 71.1014 32.1195 57.2733 34.8148C57.3905 34.8148 75.5545 41.0257 86.3358 22.7445Z" fill="#94A6C3"/>
<path d="M91.9607 116.26C99.461 110.401 105.086 102.315 107.664 93.174C107.781 92.823 108.836 92.237 109.539 91.768C110.711 91.0649 111.883 90.479 112.117 89.5415C112.586 86.8462 112.82 84.0337 112.82 81.2212C112.82 80.1665 111.765 79.1118 110.711 78.0571C109.89 77.354 109.07 76.5337 109.07 75.9477C107.898 65.2837 102.976 55.3227 95.1248 48.0571L94.3044 48.8774C101.922 56.0258 106.844 65.7524 107.898 76.0649C108.015 77.0024 108.953 77.9399 109.89 78.8774C110.711 79.5805 111.648 80.6352 111.648 81.104C111.648 83.7993 111.414 86.4946 110.945 89.1899C110.828 89.6587 109.773 90.1274 108.953 90.5962C107.781 91.1821 106.726 91.768 106.492 92.706C103.679 102.666 97.234 111.338 88.6794 116.963C90.2029 113.682 95.0076 103.018 97.586 97.627L97.117 80.2837L82.2341 65.8696L73.7966 67.0415L64.5388 82.0415C64.5388 82.0415 68.8748 87.5493 62.781 93.995C56.8044 100.323 52.1169 101.729 52.1169 101.729L47.781 99.385C49.0701 97.745 51.6482 95.284 53.6404 93.643C57.0388 90.8305 60.4373 90.5962 60.4373 87.5493C60.5544 81.2212 53.7576 82.979 53.7576 82.979L51.2966 85.3227L50.2419 93.995L45.0857 100.44L44.4998 100.323L36.0623 98.448C36.0623 98.448 41.2185 95.752 42.0388 92.706C42.8591 89.7758 40.3982 80.0493 40.281 79.4633C40.3982 79.5805 42.7419 81.5727 43.7966 84.854C45.6716 79.6977 48.1326 74.7758 48.8357 74.3071C49.5388 73.8383 59.031 68.7993 59.031 68.7993L55.8669 77.1196L58.2107 75.8305L63.8357 62.0024C63.8357 62.0024 69.3435 59.3071 73.4451 59.3071C80.8279 59.1899 91.7263 50.1665 86.8044 33.9946C88.2107 34.5805 112.586 46.768 116.804 70.6743C119.968 89.0727 109.539 106.299 91.9607 116.26Z" fill="#94A6C3"/>
<path d="M64.0703 25.3227C66.7656 22.1586 65.7109 17.4711 65.7109 17.4711L57.8594 29.0727C57.7422 29.0727 60.6719 29.1898 64.0703 25.3227Z" fill="#1B314F"/>
<path d="M37.7031 88.7214L38.6406 84.0339C38.6406 84.0339 34.7734 90.8307 34.4218 91.7682C34.0702 92.823 34.6562 94.698 36.1796 94.581C37.7031 94.464 39.5781 92.237 39.5781 90.5964C39.5781 88.487 37.7031 88.7214 37.7031 88.7214Z" fill="#1B314F"/>
<path d="M107.312 14.19C107.312 14.19 113.172 14.4244 119.266 15.1275C105.555 4.3462 92.5468 1.18217 81.9999 1.18217C67.4686 1.18217 57.6249 7.1587 57.039 7.5103L61.6093 0.244669C61.6093 0.244669 43.328 -1.51314 36.8827 17.8228C35.2421 13.7212 33.7186 7.7447 33.7186 7.7447C33.7186 7.7447 24.2265 16.065 28.6796 29.8931C17.7812 25.9087 2.19521 20.4009 1.60928 20.2837C0.788961 20.1665 0.554591 20.5181 0.554591 20.5181C0.554591 20.5181 0.320211 20.8697 1.02334 21.4556C2.3124 22.5103 26.9218 40.6744 32.3124 44.19C31.1405 48.4087 31.1405 50.4009 32.3124 52.3931C33.953 55.0884 34.0702 56.4947 33.8358 58.4869C33.6015 60.479 31.4921 77.7056 31.0233 79.815C30.5546 81.9244 25.6327 89.4244 25.8671 91.6509C26.1015 93.877 29.1483 103.37 31.8436 104.424C33.8358 105.127 38.7577 106.651 42.039 106.651C43.2108 106.651 44.2655 106.417 44.7343 105.948C46.7265 104.19 47.3124 103.838 48.7186 103.838C48.8358 103.838 48.953 103.838 49.0702 103.838C49.6562 103.838 50.3593 103.956 51.1796 103.956C53.0546 103.956 55.5155 103.604 57.2733 101.963C59.8515 99.385 64.3046 95.87 65.7108 94.229C67.4686 92.002 68.4062 88.9556 67.9374 85.9087C67.5858 83.0962 69.1093 80.6353 70.8671 78.1744C73.0936 75.2447 77.1952 69.9712 77.1952 69.9712C85.2811 76.065 90.3202 85.3228 90.3202 95.635C90.3202 113.917 74.3827 128.682 54.6952 128.682C51.6483 128.682 48.7186 128.331 45.789 127.627C54.8124 130.792 62.4296 131.846 68.6405 131.846C81.8827 131.846 88.914 127.042 88.914 127.042C88.914 127.042 86.453 130.206 82.4686 133.838C82.5858 133.838 82.5858 133.838 82.5858 133.838C104.5 130.792 115.164 112.745 115.164 112.745C115.164 112.745 114.344 118.604 113.289 122.588C142.469 100.674 137.547 73.2525 137.43 72.315C137.664 72.6665 140.594 76.1822 142.117 78.0572C146.805 29.7759 107.312 14.19 107.312 14.19ZM62.4296 91.2993C61.9608 91.8853 59.9686 93.643 58.5624 94.932C57.1561 96.221 55.6327 97.51 54.4608 98.682C53.9921 99.151 53.0546 99.385 51.6483 99.385C51.1796 99.385 50.7108 99.385 50.3593 99.385C50.1249 99.385 49.8905 99.385 49.6562 99.385C49.4218 99.385 49.3046 99.385 49.1874 99.385C48.8358 99.385 48.4843 99.385 48.1327 99.385C49.8905 97.042 55.0468 91.6509 56.8046 90.479C58.914 89.0728 59.9686 87.6665 58.6796 85.2056C57.3905 82.7447 53.9921 83.3306 53.9921 83.3306C53.9921 83.3306 55.9843 82.5103 57.7421 82.5103C55.5155 81.9243 52.703 82.5103 51.414 83.7994C50.0077 85.0884 50.2421 89.6587 49.6562 92.588C49.0702 95.635 47.078 97.159 44.0311 99.971C42.3905 101.495 41.2187 101.963 40.2812 101.963C38.289 101.612 35.9452 101.026 34.3046 100.44C33.1327 98.917 31.3749 93.877 30.9061 91.7681C31.2577 90.5962 32.664 88.1353 33.3671 86.729C34.7733 84.0337 35.5936 82.5103 35.828 81.104C36.2968 79.1119 37.8202 66.8072 38.4062 61.6509C39.9296 63.6431 42.039 66.9244 41.5702 69.0337C44.9687 64.229 42.5077 59.5415 41.3358 57.6665C40.2812 55.7915 38.8749 52.0415 40.0468 48.0572C41.2187 44.0728 45.4374 33.0572 45.4374 33.0572C45.4374 33.0572 46.8437 35.5181 48.8358 35.0494C50.828 34.5806 66.8827 10.44 66.8827 10.44C66.8827 10.44 71.2187 19.9322 66.6483 26.8462C61.9608 33.7603 57.3905 35.0494 57.3905 35.0494C57.3905 35.0494 63.8358 36.2212 69.8124 31.8853C72.2733 37.6275 74.6171 43.604 74.7343 44.4244C74.3827 45.2447 69.6952 56.4947 69.2265 57.1978C68.9921 57.4322 67.3515 57.9009 66.1796 58.1353C64.1874 58.7212 63.0155 59.0728 62.5468 59.4244C61.7265 60.1275 57.9765 70.44 56.2186 75.479C54.1093 76.065 51.9999 77.2368 50.4765 79.5806C51.2968 78.9947 53.8749 78.6431 55.7499 78.4087C57.3905 78.2915 62.4296 80.9868 63.7187 86.0259C63.7187 86.1431 63.7187 86.1431 63.7187 86.2603C63.953 88.1353 63.3671 89.8931 62.4296 91.2993ZM51.414 92.706C52.4687 91.1822 52.3515 88.604 52.4686 87.7837C52.5858 86.9634 52.8202 85.44 53.7577 85.2056C54.6952 84.9712 56.9218 85.3228 56.9218 86.9634C56.9218 88.4869 55.2812 88.8384 54.1093 89.8931C53.289 90.7134 51.6483 92.471 51.414 92.706ZM98.172 70.3228C99.344 64.3462 99.461 59.19 99.109 54.9712C103.68 61.065 106.492 68.4478 107.312 76.065C107.43 77.0025 108.367 77.94 109.305 78.8775C110.125 79.5806 111.062 80.5181 111.062 81.104C111.062 83.7994 110.828 86.4947 110.359 89.19C110.242 89.5415 109.187 90.1275 108.367 90.5962C107.195 91.1822 106.141 91.7681 105.906 92.706C103.328 101.729 97.82 109.698 90.4374 115.323C101.336 103.956 106.609 85.2056 98.172 70.3228ZM90.789 116.377C98.406 110.518 104.266 102.315 106.844 93.057C106.961 92.706 108.016 92.12 108.719 91.6509C109.891 91.065 111.062 90.3619 111.297 89.4243C111.766 86.729 112 83.9165 112 81.104C112 80.0494 110.945 78.9947 109.891 77.94C109.305 77.2369 108.367 76.4165 108.367 75.8306C107.43 67.2759 104.031 59.19 98.758 52.5103C96.414 38.4478 87.0389 34.1119 86.8046 33.9947C87.0389 34.3462 93.1327 43.1353 88.914 53.4478C84.578 63.8775 73.4452 62.2369 72.5077 62.354C71.5702 62.354 67.9374 67.0415 63.3671 75.7134C62.7811 75.479 60.3202 74.8931 57.5077 75.3618C59.6171 69.5025 62.7811 61.1822 63.3671 60.479C63.6015 60.2447 65.3593 59.7759 66.5311 59.4244C68.7577 58.8384 69.8124 58.4869 70.164 58.0181C70.3983 57.6665 71.5702 54.9712 72.7421 52.1587C73.7968 52.1587 76.4921 51.9244 76.7265 51.8072C76.9608 51.5728 79.1874 45.8306 79.1874 45.1275C79.1874 44.5415 74.6171 33.1744 72.8593 28.8384C73.6796 27.9009 74.4999 26.729 75.3202 25.44C99.344 28.0181 118.094 48.4087 118.094 73.1353C118.094 92.12 106.961 108.643 90.789 116.377Z" fill="#1B314F"/>
<path d="M59.6171 53.0962C61.8437 50.5181 60.6718 45.7134 56.5702 44.8931C57.6249 42.4321 59.1483 37.5103 59.1483 37.5103C59.1483 37.5103 47.1952 56.2602 46.1405 56.6118C45.0858 56.9634 44.0312 52.8618 44.0312 52.8618C41.8046 61.4165 47.7812 62.5884 48.4843 59.8931C51.7655 59.0728 57.3905 55.5571 59.6171 53.0962Z" fill="#1B314F"/>
<path d="M49.4219 57.6668L55.5156 47.2371C55.5156 47.2371 59.0312 48.9949 57.2734 51.8074C55.0469 55.0887 49.4219 57.6668 49.4219 57.6668Z" fill="#FFD923"/>
<path d="M124.773 105.948C123.015 108.292 121.023 110.753 118.679 113.096C133.797 84.0339 119.383 57.4323 118.797 56.3776C119.851 57.4323 120.906 58.6042 121.844 59.6588C133.445 72.5495 134.851 91.8854 124.773 105.948Z" fill="#D82122"/>
<path d="M138.836 68.5651C133.562 54.3854 126.062 42.3151 109.539 31.4166C93.6014 20.8697 76.492 21.6901 75.5545 21.8072C75.4373 21.8072 75.3201 21.8072 75.3201 21.8072C75.906 21.5729 76.492 21.4557 77.0779 21.3385C80.7107 20.1666 85.3982 19.2291 90.0857 18.6432C102.508 16.8854 115.047 21.1041 123.601 30.1276C123.719 30.2447 123.719 30.2447 123.836 30.3619C133.562 40.6744 138.601 53.5651 138.836 68.5651Z" fill="#D82122"/>
<path d="M105.789 10.5575C88.3279 7.27629 77.0779 8.91689 68.992 11.9638C68.7576 11.0263 67.9373 9.15129 67.2342 7.62789C64.7732 10.5575 62.1951 14.0732 60.5545 16.2997C56.1014 19.3466 54.2264 22.2763 54.2264 22.2763C56.8045 13.4872 64.3045 6.92469 73.4451 5.28409C76.0232 4.81539 78.8357 4.58099 81.8826 4.58099C89.9686 4.69819 98.054 6.69039 105.789 10.5575Z" fill="#D82122"/>
<path d="M41.2186 33.0575C27.5077 32.5888 32.078 16.6513 32.3124 15.7138C32.3124 15.831 33.2499 28.2529 41.2186 33.0575Z" fill="#D82122"/>
<path d="M54.6951 4.34637C44.1483 10.6746 46.2576 25.7917 46.2576 25.7917C36.1795 10.4402 53.8748 4.69797 54.6951 4.34637Z" fill="#D82122"/>
<path d="M37.3516 37.2759C38.0547 37.8619 38.7578 38.9166 37.9375 40.44C37.4688 41.2603 36.7656 41.1431 35.7109 40.6744C34.3047 39.9713 25.8672 35.0494 18.25 30.0103C26.9219 33.0572 35.7109 36.3384 37.1172 37.0416C37.1172 37.0416 37.2344 37.1588 37.3516 37.2759Z" fill="white"/>
</g>
<defs>
<clipPath id="clip0_1_28">
<rect width="143" height="134" fill="white"/>
</clipPath>
</defs>
</svg>
